<svg xmlns="http://www.w3.org/2000/svg" xmlns:xlink="http://www.w3.org/1999/xlink" contentStyleType="text/css" data-diagram-type="SEQUENCE" height="817px" preserveAspectRatio="none" style="width:1181px;height:817px;background:#FFFFFF;" version="1.1" viewBox="0 0 1181 817" width="1181px" zoomAndPan="magnify"><title>Vacation Tracking System - Cancel Approved Request Use Case</title><defs/><g><text fill="#000000" font-family="sans-serif" font-size="14" font-weight="bold" lengthAdjust="spacing" textLength="500.377" x="336.3115" y="27.9951">Vacation Tracking System - Cancel Approved Request Use Case</text><rect fill="none" height="90.2031" style="stroke:#000000;stroke-width:1.5;" width="760.2627" x="10" y="353.5234"/><rect fill="none" height="261.8672" style="stroke:#000000;stroke-width:1.5;" width="1013.7773" x="10" y="457.7266"/><g><title>Employee</title><rect fill="#000000" fill-opacity="0.00000" height="618" width="8" x="53.6685" y="118.5938"/><line style="stroke:#181818;stroke-width:0.5;stroke-dasharray:5,5;" x1="57" x2="57" y1="118.5938" y2="736.5938"/></g><g><title>Intranet Portal</title><rect fill="#000000" fill-opacity="0.00000" height="618" width="8" x="167.2402" y="118.5938"/><line style="stroke:#181818;stroke-width:0.5;stroke-dasharray:5,5;" x1="170.7534" x2="170.7534" y1="118.5938" y2="736.5938"/></g><g><title>Vacation Tracking System</title><rect fill="#000000" fill-opacity="0.00000" height="618" width="8" x="657.9141" y="118.5938"/><line style="stroke:#181818;stroke-width:0.5;stroke-dasharray:5,5;" x1="661.5654" x2="661.5654" y1="118.5938" y2="736.5938"/></g><g><title>Email Service</title><rect fill="#000000" fill-opacity="0.00000" height="618" width="8" x="955.2607" y="118.5938"/><line style="stroke:#181818;stroke-width:0.5;stroke-dasharray:5,5;" x1="958.7441" x2="958.7441" y1="118.5938" y2="736.5938"/></g><g><title>HR Legacy System</title><rect fill="#000000" fill-opacity="0.00000" height="618" width="8" x="1092.3887" y="118.5938"/><line style="stroke:#181818;stroke-width:0.5;stroke-dasharray:5,5;" x1="1095.7773" x2="1095.7773" y1="118.5938" y2="736.5938"/></g><g class="participant participant-head" data-participant="Employee"><text fill="#000000" font-family="sans-serif" font-size="14" lengthAdjust="spacing" textLength="69.3369" x="20" y="115.292">Employee</text><ellipse cx="57.6685" cy="50.7969" fill="#E2E2F0" rx="8" ry="8" style="stroke:#181818;stroke-width:0.5;"/><path d="M57.6685,58.7969 L57.6685,85.7969 M44.6685,66.7969 L70.6685,66.7969 M57.6685,85.7969 L44.6685,100.7969 M57.6685,85.7969 L70.6685,100.7969" fill="none" style="stroke:#181818;stroke-width:0.5;"/></g><g class="participant participant-tail" data-participant="Employee"><text fill="#000000" font-family="sans-serif" font-size="14" lengthAdjust="spacing" textLength="69.3369" x="20" y="748.5889">Employee</text><ellipse cx="57.6685" cy="760.3906" fill="#E2E2F0" rx="8" ry="8" style="stroke:#181818;stroke-width:0.5;"/><path d="M57.6685,768.3906 L57.6685,795.3906 M44.6685,776.3906 L70.6685,776.3906 M57.6685,795.3906 L44.6685,810.3906 M57.6685,795.3906 L70.6685,810.3906" fill="none" style="stroke:#181818;stroke-width:0.5;"/></g><g class="participant participant-head" data-participant="Portal"><rect fill="#E2E2F0" height="30.2969" rx="2.5" ry="2.5" style="stroke:#181818;stroke-width:0.5;" width="114.9736" x="113.7534" y="87.2969"/><text fill="#000000" font-family="sans-serif" font-size="14" lengthAdjust="spacing" textLength="100.9736" x="120.7534" y="107.292">Intranet Portal</text></g><g class="participant participant-tail" data-participant="Portal"><rect fill="#E2E2F0" height="30.2969" rx="2.5" ry="2.5" style="stroke:#181818;stroke-width:0.5;" width="114.9736" x="113.7534" y="735.5938"/><text fill="#000000" font-family="sans-serif" font-size="14" lengthAdjust="spacing" textLength="100.9736" x="120.7534" y="755.5889">Intranet Portal</text></g><g class="participant participant-head" data-participant="VTS"><rect fill="#E2E2F0" height="30.2969" rx="2.5" ry="2.5" style="stroke:#181818;stroke-width:0.5;" width="196.6973" x="563.5654" y="87.2969"/><text fill="#000000" font-family="sans-serif" font-size="14" lengthAdjust="spacing" textLength="182.6973" x="570.5654" y="107.292">Vacation Tracking System</text></g><g class="participant participant-tail" data-participant="VTS"><rect fill="#E2E2F0" height="30.2969" rx="2.5" ry="2.5" style="stroke:#181818;stroke-width:0.5;" width="196.6973" x="563.5654" y="735.5938"/><text fill="#000000" font-family="sans-serif" font-size="14" lengthAdjust="spacing" textLength="182.6973" x="570.5654" y="755.5889">Vacation Tracking System</text></g><g class="participant participant-head" data-participant="Email"><rect fill="#E2E2F0" height="30.2969" rx="2.5" ry="2.5" style="stroke:#181818;stroke-width:0.5;" width="109.0332" x="904.7441" y="87.2969"/><text fill="#000000" font-family="sans-serif" font-size="14" lengthAdjust="spacing" textLength="95.0332" x="911.7441" y="107.292">Email Service</text></g><g class="participant participant-tail" data-participant="Email"><rect fill="#E2E2F0" height="30.2969" rx="2.5" ry="2.5" style="stroke:#181818;stroke-width:0.5;" width="109.0332" x="904.7441" y="735.5938"/><text fill="#000000" font-family="sans-serif" font-size="14" lengthAdjust="spacing" textLength="95.0332" x="911.7441" y="755.5889">Email Service</text></g><g class="participant participant-head" data-participant="HR"><rect fill="#E2E2F0" height="30.2969" rx="2.5" ry="2.5" style="stroke:#181818;stroke-width:0.5;" width="145.2227" x="1023.7773" y="87.2969"/><text fill="#000000" font-family="sans-serif" font-size="14" lengthAdjust="spacing" textLength="131.2227" x="1030.7773" y="107.292">HR Legacy System</text></g><g class="participant participant-tail" data-participant="HR"><rect fill="#E2E2F0" height="30.2969" rx="2.5" ry="2.5" style="stroke:#181818;stroke-width:0.5;" width="145.2227" x="1023.7773" y="735.5938"/><text fill="#000000" font-family="sans-serif" font-size="14" lengthAdjust="spacing" textLength="131.2227" x="1030.7773" y="755.5889">HR Legacy System</text></g><rect fill="#EEEEEE" height="3" style="stroke:#EEEEEE;stroke-width:1;" width="1174" x="0" y="149.1602"/><line style="stroke:#000000;stroke-width:1;" x1="0" x2="1174" y1="149.1602" y2="149.1602"/><line style="stroke:#000000;stroke-width:1;" x1="0" x2="1174" y1="152.1602" y2="152.1602"/><rect fill="#EEEEEE" height="23.1328" style="stroke:#000000;stroke-width:2;" width="298.4194" x="437.7903" y="138.5938"/><text fill="#000000" font-family="sans-serif" font-size="13" font-weight="bold" lengthAdjust="spacing" textLength="279.8936" x="443.7903" y="154.6606">Employee Withdraw Vacation Request</text><g class="message" data-participant-1="Employee" data-participant-2="Portal"><polygon fill="#181818" points="159.2402,188.8594,169.2402,192.8594,159.2402,196.8594,163.2402,192.8594" style="stroke:#181818;stroke-width:1;"/><line style="stroke:#181818;stroke-width:1;" x1="57.6685" x2="165.2402" y1="192.8594" y2="192.8594"/><text fill="#000000" font-family="sans-serif" font-size="13" lengthAdjust="spacing" textLength="89.5718" x="64.6685" y="187.7935">Login via SSO</text></g><g class="message" data-participant-1="Portal" data-participant-2="VTS"><polygon fill="#181818" points="649.9141,217.9922,659.9141,221.9922,649.9141,225.9922,653.9141,221.9922" style="stroke:#181818;stroke-width:1;"/><line style="stroke:#181818;stroke-width:1;" x1="171.2402" x2="655.9141" y1="221.9922" y2="221.9922"/><text fill="#000000" font-family="sans-serif" font-size="13" lengthAdjust="spacing" textLength="179.7021" x="178.2402" y="216.9263">Naviagte to VTS Homepage</text></g><g class="message" data-participant-1="VTS" data-participant-2="HR"><polygon fill="#181818" points="1084.3887,247.125,1094.3887,251.125,1084.3887,255.125,1088.3887,251.125" style="stroke:#181818;stroke-width:1;"/><line style="stroke:#181818;stroke-width:1;" x1="661.9141" x2="1090.3887" y1="251.125" y2="251.125"/><text fill="#000000" font-family="sans-serif" font-size="13" lengthAdjust="spacing" textLength="184.9072" x="668.9141" y="246.0591">Get Employee vacation data</text></g><g class="message" data-participant-1="HR" data-participant-2="VTS"><polygon fill="#181818" points="672.9141,276.2578,662.9141,280.2578,672.9141,284.2578,668.9141,280.2578" style="stroke:#181818;stroke-width:1;"/><line style="stroke:#181818;stroke-width:1;stroke-dasharray:2,2;" x1="666.9141" x2="1095.3887" y1="280.2578" y2="280.2578"/><text fill="#000000" font-family="sans-serif" font-size="13" lengthAdjust="spacing" textLength="145.8818" x="678.9141" y="275.1919">Return Employee data</text></g><g class="message" data-participant-1="VTS" data-participant-2="Employee"><polygon fill="#181818" points="68.6685,305.3906,58.6685,309.3906,68.6685,313.3906,64.6685,309.3906" style="stroke:#181818;stroke-width:1;"/><line style="stroke:#181818;stroke-width:1;stroke-dasharray:2,2;" x1="62.6685" x2="660.9141" y1="309.3906" y2="309.3906"/><text fill="#000000" font-family="sans-serif" font-size="13" lengthAdjust="spacing" textLength="378.1743" x="74.6685" y="304.3247">Homepage contains a summary of vacation time requests</text></g><g class="message" data-participant-1="Employee" data-participant-2="VTS"><polygon fill="#181818" points="649.9141,334.5234,659.9141,338.5234,649.9141,342.5234,653.9141,338.5234" style="stroke:#181818;stroke-width:1;"/><line style="stroke:#181818;stroke-width:1;" x1="57.6685" x2="655.9141" y1="338.5234" y2="338.5234"/><text fill="#000000" font-family="sans-serif" font-size="13" lengthAdjust="spacing" textLength="245.2036" x="64.6685" y="333.4575">Employee selects a request to Cancel</text></g><path d="M10,353.5234 L74.4429,353.5234 L74.4429,360.6563 L64.4429,370.6563 L10,370.6563 L10,353.5234" fill="#EEEEEE" style="stroke:#000000;stroke-width:1.5;"/><rect fill="none" height="90.2031" style="stroke:#000000;stroke-width:1.5;" width="760.2627" x="10" y="353.5234"/><text fill="#000000" font-family="sans-serif" font-size="13" font-weight="bold" lengthAdjust="spacing" textLength="19.4429" x="25" y="366.5903">alt</text><text fill="#000000" font-family="sans-serif" font-size="11" font-weight="bold" lengthAdjust="spacing" textLength="103.0605" x="89.4429" y="365.7339">[Future request]</text><g class="message" data-participant-1="VTS" data-participant-2="Employee"><polygon fill="#181818" points="68.6685,387.7891,58.6685,391.7891,68.6685,395.7891,64.6685,391.7891" style="stroke:#181818;stroke-width:1;"/><line style="stroke:#181818;stroke-width:1;stroke-dasharray:2,2;" x1="62.6685" x2="660.9141" y1="391.7891" y2="391.7891"/><text fill="#000000" font-family="sans-serif" font-size="13" lengthAdjust="spacing" textLength="368.0181" x="74.6685" y="386.7231">Prompts the Employee to confirm cancelling the request</text></g><line style="stroke:#000000;stroke-width:1;stroke-dasharray:2,2;" x1="10" x2="770.2627" y1="400.7891" y2="400.7891"/><text fill="#000000" font-family="sans-serif" font-size="11" font-weight="bold" lengthAdjust="spacing" textLength="186.5864" x="15" y="410.9995">[request is in the recent past]</text><g class="message" data-participant-1="VTS" data-participant-2="Employee"><polygon fill="#181818" points="68.6685,431.7266,58.6685,435.7266,68.6685,439.7266,64.6685,435.7266" style="stroke:#181818;stroke-width:1;"/><line style="stroke:#181818;stroke-width:1;stroke-dasharray:2,2;" x1="62.6685" x2="660.9141" y1="435.7266" y2="435.7266"/><text fill="#000000" font-family="sans-serif" font-size="13" lengthAdjust="spacing" textLength="580.2456" x="74.6685" y="430.6606">Prompts the Employee to confirm cancelling the request and provide a short explanation</text></g><path d="M10,457.7266 L74.4429,457.7266 L74.4429,464.8594 L64.4429,474.8594 L10,474.8594 L10,457.7266" fill="#EEEEEE" style="stroke:#000000;stroke-width:1.5;"/><rect fill="none" height="261.8672" style="stroke:#000000;stroke-width:1.5;" width="1013.7773" x="10" y="457.7266"/><text fill="#000000" font-family="sans-serif" font-size="13" font-weight="bold" lengthAdjust="spacing" textLength="19.4429" x="25" y="470.7935">alt</text><text fill="#000000" font-family="sans-serif" font-size="11" font-weight="bold" lengthAdjust="spacing" textLength="234.8296" x="89.4429" y="469.937">[Employee approves the cancellation]</text><g class="message" data-participant-1="Employee" data-participant-2="VTS"><polygon fill="#181818" points="649.9141,491.9922,659.9141,495.9922,649.9141,499.9922,653.9141,495.9922" style="stroke:#181818;stroke-width:1;"/><line style="stroke:#181818;stroke-width:1;" x1="57.6685" x2="655.9141" y1="495.9922" y2="495.9922"/><text fill="#000000" font-family="sans-serif" font-size="13" lengthAdjust="spacing" textLength="485.6465" x="64.6685" y="490.9263">Employee confirms the cancellation and provides the required information</text></g><g class="message" data-participant-1="VTS" data-participant-2="Email"><polygon fill="#181818" points="947.2607,521.125,957.2607,525.125,947.2607,529.125,951.2607,525.125" style="stroke:#181818;stroke-width:1;"/><line style="stroke:#181818;stroke-width:1;" x1="661.9141" x2="953.2607" y1="525.125" y2="525.125"/><text fill="#000000" font-family="sans-serif" font-size="13" lengthAdjust="spacing" textLength="271.9653" x="668.9141" y="520.0591">Send a notification e-mail to the manager</text></g><g class="message" data-participant-1="VTS" data-participant-2="VTS"><line style="stroke:#181818;stroke-width:1;" x1="661.9141" x2="703.9141" y1="554.2578" y2="554.2578"/><line style="stroke:#181818;stroke-width:1;" x1="703.9141" x2="703.9141" y1="554.2578" y2="567.2578"/><line style="stroke:#181818;stroke-width:1;" x1="662.9141" x2="703.9141" y1="567.2578" y2="567.2578"/><polygon fill="#181818" points="672.9141,563.2578,662.9141,567.2578,672.9141,571.2578,668.9141,567.2578" style="stroke:#181818;stroke-width:1;"/><text fill="#000000" font-family="sans-serif" font-size="13" lengthAdjust="spacing" textLength="246.7334" x="668.9141" y="549.1919">Update the request state to cancelled</text></g><g class="message" data-participant-1="VTS" data-participant-2="VTS"><line style="stroke:#181818;stroke-width:1;" x1="661.9141" x2="703.9141" y1="596.3906" y2="596.3906"/><line style="stroke:#181818;stroke-width:1;" x1="703.9141" x2="703.9141" y1="596.3906" y2="609.3906"/><line style="stroke:#181818;stroke-width:1;" x1="662.9141" x2="703.9141" y1="609.3906" y2="609.3906"/><polygon fill="#181818" points="672.9141,605.3906,662.9141,609.3906,672.9141,613.3906,668.9141,609.3906" style="stroke:#181818;stroke-width:1;"/><text fill="#000000" font-family="sans-serif" font-size="13" lengthAdjust="spacing" textLength="283.3467" x="668.9141" y="591.3247">Return the time allowance to the Employee</text></g><g class="message" data-participant-1="VTS" data-participant-2="Employee"><polygon fill="#181818" points="68.6685,634.5234,58.6685,638.5234,68.6685,642.5234,64.6685,638.5234" style="stroke:#181818;stroke-width:1;"/><line style="stroke:#181818;stroke-width:1;stroke-dasharray:2,2;" x1="62.6685" x2="660.9141" y1="638.5234" y2="638.5234"/><text fill="#000000" font-family="sans-serif" font-size="13" lengthAdjust="spacing" textLength="136.1255" x="74.6685" y="633.4575">Return to Homepage</text></g><line style="stroke:#000000;stroke-width:1;stroke-dasharray:2,2;" x1="10" x2="1023.7773" y1="647.5234" y2="647.5234"/><text fill="#000000" font-family="sans-serif" font-size="11" font-weight="bold" lengthAdjust="spacing" textLength="217.583" x="15" y="657.7339">[Employee aborts the cancellation]</text><g class="message" data-participant-1="Employee" data-participant-2="VTS"><polygon fill="#181818" points="649.9141,678.4609,659.9141,682.4609,649.9141,686.4609,653.9141,682.4609" style="stroke:#181818;stroke-width:1;"/><line style="stroke:#181818;stroke-width:1;" x1="57.6685" x2="655.9141" y1="682.4609" y2="682.4609"/><text fill="#000000" font-family="sans-serif" font-size="13" lengthAdjust="spacing" textLength="218.0928" x="64.6685" y="677.395">Employee aborts the cancellation</text></g><g class="message" data-participant-1="VTS" data-participant-2="Employee"><polygon fill="#181818" points="68.6685,707.5938,58.6685,711.5938,68.6685,715.5938,64.6685,711.5938" style="stroke:#181818;stroke-width:1;"/><line style="stroke:#181818;stroke-width:1;stroke-dasharray:2,2;" x1="62.6685" x2="660.9141" y1="711.5938" y2="711.5938"/><text fill="#000000" font-family="sans-serif" font-size="13" lengthAdjust="spacing" textLength="136.1255" x="74.6685" y="706.5278">Return to Homepage</text></g><!--SRC=[hLFBRjim4BppAnQv-mSCk40Gf7M1e0sa93rlgRLCb0-LN3lrttT9wX6XIT40lKdaxEpix90DMu8drCWcU7Y8g7yOtqDxIKmEDd23NfE5ws68uKmTDFJpH8dXCP7S9L8ADOS8jswmuKAa1enij1dGCrnzzXpH4yDzY8ps2Z2DdslSMm9AmTD3kqRVEZGMMefdewb0oiaQj6_WZdhKbvTK-qQftMuM2zyC7xk8pui3qtoxdPfHcm-Zw2tSXTvuE1k4jlsgwcc-5urR-89oqJC1Xtm0- -1em9vK_X7Gljd29p5Z9ZvFNJjaLA9uCr4rnAVe5sG151f1JAVRkGFeu1cDJu2GJivXl40uBFni746ieoMrcgoqcmyIMTASQKPqdgLcG3Pj6JwUHDZCzOga-nZS80nyf8LMI4JXmKG7kf3PlECCcOZ8Ig3cfYQ1s5plDSaw1_oFpG1z1pdFfgDis57M2FHhiEYBNOfyLwUTER7cltOQMQkrVp5pLF5AqGi1QLPcehmlumyXkYfZZ4q9zrRoBaK8Fh0vc76lj2bFGIRE94xqznIdkYBcSP3eq6hwn5WpEagYRbKnHYzNbDYWjU4v8wSsyrF_SnzJRLYoNnUx6FbTp7wVZM-K_6Dxt_q6]--></g></svg>