<svg xmlns="http://www.w3.org/2000/svg" xmlns:xlink="http://www.w3.org/1999/xlink" contentStyleType="text/css" data-diagram-type="SEQUENCE" height="914px" preserveAspectRatio="none" style="width:757px;height:914px;background:#FFFFFF;" version="1.1" viewBox="0 0 757 914" width="757px" zoomAndPan="magnify"><title>Vacation Tracking System - Edit Pending Request Use Case</title><defs/><g><text fill="#000000" font-family="sans-serif" font-size="14" font-weight="bold" lengthAdjust="spacing" textLength="467.6602" x="140.781" y="27.9951">Vacation Tracking System - Edit Pending Request Use Case</text><rect fill="none" height="450.3359" style="stroke:#000000;stroke-width:1.5;" width="729.0737" x="10" y="366.5234"/><rect fill="none" height="132.3359" style="stroke:#000000;stroke-width:1.5;" width="611.811" x="20" y="677.5234"/><g><title>Employee</title><rect fill="#000000" fill-opacity="0.00000" height="715.2656" width="8" x="63.6685" y="118.5938"/><line style="stroke:#181818;stroke-width:0.5;stroke-dasharray:5,5;" x1="67" x2="67" y1="118.5938" y2="833.8594"/></g><g><title>Intranet Portal</title><rect fill="#000000" fill-opacity="0.00000" height="715.2656" width="8" x="177.2402" y="118.5938"/><line style="stroke:#181818;stroke-width:0.5;stroke-dasharray:5,5;" x1="180.7534" x2="180.7534" y1="118.5938" y2="833.8594"/></g><g><title>Vacation Tracking System</title><rect fill="#000000" fill-opacity="0.00000" height="715.2656" width="8" x="431.4639" y="118.5938"/><line style="stroke:#181818;stroke-width:0.5;stroke-dasharray:5,5;" x1="435.1152" x2="435.1152" y1="118.5938" y2="833.8594"/></g><g class="participant participant-head" data-participant="Employee"><text fill="#000000" font-family="sans-serif" font-size="14" lengthAdjust="spacing" textLength="69.3369" x="30" y="115.292">Employee</text><ellipse cx="67.6685" cy="50.7969" fill="#E2E2F0" rx="8" ry="8" style="stroke:#181818;stroke-width:0.5;"/><path d="M67.6685,58.7969 L67.6685,85.7969 M54.6685,66.7969 L80.6685,66.7969 M67.6685,85.7969 L54.6685,100.7969 M67.6685,85.7969 L80.6685,100.7969" fill="none" style="stroke:#181818;stroke-width:0.5;"/></g><g class="participant participant-tail" data-participant="Employee"><text fill="#000000" font-family="sans-serif" font-size="14" lengthAdjust="spacing" textLength="69.3369" x="30" y="845.8545">Employee</text><ellipse cx="67.6685" cy="857.6563" fill="#E2E2F0" rx="8" ry="8" style="stroke:#181818;stroke-width:0.5;"/><path d="M67.6685,865.6563 L67.6685,892.6563 M54.6685,873.6563 L80.6685,873.6563 M67.6685,892.6563 L54.6685,907.6563 M67.6685,892.6563 L80.6685,907.6563" fill="none" style="stroke:#181818;stroke-width:0.5;"/></g><g class="participant participant-head" data-participant="Portal"><rect fill="#E2E2F0" height="30.2969" rx="2.5" ry="2.5" style="stroke:#181818;stroke-width:0.5;" width="114.9736" x="123.7534" y="87.2969"/><text fill="#000000" font-family="sans-serif" font-size="14" lengthAdjust="spacing" textLength="100.9736" x="130.7534" y="107.292">Intranet Portal</text></g><g class="participant participant-tail" data-participant="Portal"><rect fill="#E2E2F0" height="30.2969" rx="2.5" ry="2.5" style="stroke:#181818;stroke-width:0.5;" width="114.9736" x="123.7534" y="832.8594"/><text fill="#000000" font-family="sans-serif" font-size="14" lengthAdjust="spacing" textLength="100.9736" x="130.7534" y="852.8545">Intranet Portal</text></g><g class="participant participant-head" data-participant="VTS"><rect fill="#E2E2F0" height="30.2969" rx="2.5" ry="2.5" style="stroke:#181818;stroke-width:0.5;" width="196.6973" x="337.1152" y="87.2969"/><text fill="#000000" font-family="sans-serif" font-size="14" lengthAdjust="spacing" textLength="182.6973" x="344.1152" y="107.292">Vacation Tracking System</text></g><g class="participant participant-tail" data-participant="VTS"><rect fill="#E2E2F0" height="30.2969" rx="2.5" ry="2.5" style="stroke:#181818;stroke-width:0.5;" width="196.6973" x="337.1152" y="832.8594"/><text fill="#000000" font-family="sans-serif" font-size="14" lengthAdjust="spacing" textLength="182.6973" x="344.1152" y="852.8545">Vacation Tracking System</text></g><rect fill="#EEEEEE" height="3" style="stroke:#EEEEEE;stroke-width:1;" width="750.2222" x="0" y="149.1602"/><line style="stroke:#000000;stroke-width:1;" x1="0" x2="750.2222" y1="149.1602" y2="149.1602"/><line style="stroke:#000000;stroke-width:1;" x1="0" x2="750.2222" y1="152.1602" y2="152.1602"/><rect fill="#EEEEEE" height="23.1328" style="stroke:#000000;stroke-width:2;" width="260.0034" x="245.1094" y="138.5938"/><text fill="#000000" font-family="sans-serif" font-size="13" font-weight="bold" lengthAdjust="spacing" textLength="241.4775" x="251.1094" y="154.6606">Employee Edits Pending Request</text><g class="message" data-participant-1="Employee" data-participant-2="Portal"><polygon fill="#181818" points="169.2402,188.8594,179.2402,192.8594,169.2402,196.8594,173.2402,192.8594" style="stroke:#181818;stroke-width:1;"/><line style="stroke:#181818;stroke-width:1;" x1="67.6685" x2="175.2402" y1="192.8594" y2="192.8594"/><text fill="#000000" font-family="sans-serif" font-size="13" lengthAdjust="spacing" textLength="89.5718" x="74.6685" y="187.7935">Login via SSO</text></g><g class="message" data-participant-1="Portal" data-participant-2="VTS"><polygon fill="#181818" points="423.4639,217.9922,433.4639,221.9922,423.4639,225.9922,427.4639,221.9922" style="stroke:#181818;stroke-width:1;"/><line style="stroke:#181818;stroke-width:1;" x1="181.2402" x2="429.4639" y1="221.9922" y2="221.9922"/><text fill="#000000" font-family="sans-serif" font-size="13" lengthAdjust="spacing" textLength="179.7021" x="188.2402" y="216.9263">Navigate to VTS Homepage</text></g><g class="message" data-participant-1="VTS" data-participant-2="VTS"><line style="stroke:#181818;stroke-width:1;" x1="435.4639" x2="477.4639" y1="251.125" y2="251.125"/><line style="stroke:#181818;stroke-width:1;" x1="477.4639" x2="477.4639" y1="251.125" y2="264.125"/><line style="stroke:#181818;stroke-width:1;" x1="436.4639" x2="477.4639" y1="264.125" y2="264.125"/><polygon fill="#181818" points="446.4639,260.125,436.4639,264.125,446.4639,268.125,442.4639,264.125" style="stroke:#181818;stroke-width:1;"/><text fill="#000000" font-family="sans-serif" font-size="13" lengthAdjust="spacing" textLength="300.7583" x="442.4639" y="246.0591">Retrieve employee data &amp; request summaries</text></g><g class="message" data-participant-1="VTS" data-participant-2="Employee"><polygon fill="#181818" points="78.6685,289.2578,68.6685,293.2578,78.6685,297.2578,74.6685,293.2578" style="stroke:#181818;stroke-width:1;"/><line style="stroke:#181818;stroke-width:1;stroke-dasharray:2,2;" x1="72.6685" x2="434.4639" y1="293.2578" y2="293.2578"/><text fill="#000000" font-family="sans-serif" font-size="13" lengthAdjust="spacing" textLength="343.7954" x="84.6685" y="288.1919">Display VTS homepage (pending requests summary)</text></g><g class="message" data-participant-1="Employee" data-participant-2="VTS"><polygon fill="#181818" points="423.4639,318.3906,433.4639,322.3906,423.4639,326.3906,427.4639,322.3906" style="stroke:#181818;stroke-width:1;"/><line style="stroke:#181818;stroke-width:1;" x1="67.6685" x2="429.4639" y1="322.3906" y2="322.3906"/><text fill="#000000" font-family="sans-serif" font-size="13" lengthAdjust="spacing" textLength="197.1899" x="74.6685" y="317.3247">Select pending request to edit</text></g><g class="message" data-participant-1="VTS" data-participant-2="Employee"><polygon fill="#181818" points="78.6685,347.5234,68.6685,351.5234,78.6685,355.5234,74.6685,351.5234" style="stroke:#181818;stroke-width:1;"/><line style="stroke:#181818;stroke-width:1;stroke-dasharray:2,2;" x1="72.6685" x2="434.4639" y1="351.5234" y2="351.5234"/><text fill="#000000" font-family="sans-serif" font-size="13" lengthAdjust="spacing" textLength="319.5156" x="84.6685" y="346.4575">Display editable request (title, comments, dates)</text></g><path d="M10,366.5234 L74.4429,366.5234 L74.4429,373.6563 L64.4429,383.6563 L10,383.6563 L10,366.5234" fill="#EEEEEE" style="stroke:#000000;stroke-width:1.5;"/><rect fill="none" height="450.3359" style="stroke:#000000;stroke-width:1.5;" width="729.0737" x="10" y="366.5234"/><text fill="#000000" font-family="sans-serif" font-size="13" font-weight="bold" lengthAdjust="spacing" textLength="19.4429" x="25" y="379.5903">alt</text><text fill="#000000" font-family="sans-serif" font-size="11" font-weight="bold" lengthAdjust="spacing" textLength="214.6719" x="89.4429" y="378.7339">[Employee withdraws the request]</text><g class="message" data-participant-1="Employee" data-participant-2="VTS"><polygon fill="#181818" points="423.4639,400.7891,433.4639,404.7891,423.4639,408.7891,427.4639,404.7891" style="stroke:#181818;stroke-width:1;"/><line style="stroke:#181818;stroke-width:1;" x1="67.6685" x2="429.4639" y1="404.7891" y2="404.7891"/><text fill="#000000" font-family="sans-serif" font-size="13" lengthAdjust="spacing" textLength="109.0654" x="74.6685" y="399.7231">Click "Withdraw"</text></g><g class="message" data-participant-1="VTS" data-participant-2="Employee"><polygon fill="#181818" points="78.6685,429.9219,68.6685,433.9219,78.6685,437.9219,74.6685,433.9219" style="stroke:#181818;stroke-width:1;"/><line style="stroke:#181818;stroke-width:1;stroke-dasharray:2,2;" x1="72.6685" x2="434.4639" y1="433.9219" y2="433.9219"/><text fill="#000000" font-family="sans-serif" font-size="13" lengthAdjust="spacing" textLength="155.6953" x="84.6685" y="428.856">Prompt for confirmation</text></g><g class="message" data-participant-1="Employee" data-participant-2="VTS"><polygon fill="#181818" points="423.4639,459.0547,433.4639,463.0547,423.4639,467.0547,427.4639,463.0547" style="stroke:#181818;stroke-width:1;"/><line style="stroke:#181818;stroke-width:1;" x1="67.6685" x2="429.4639" y1="463.0547" y2="463.0547"/><text fill="#000000" font-family="sans-serif" font-size="13" lengthAdjust="spacing" textLength="115.375" x="74.6685" y="457.9888">Confirm withdraw</text></g><g class="message" data-participant-1="VTS" data-participant-2="VTS"><line style="stroke:#181818;stroke-width:1;" x1="435.4639" x2="477.4639" y1="492.1875" y2="492.1875"/><line style="stroke:#181818;stroke-width:1;" x1="477.4639" x2="477.4639" y1="492.1875" y2="505.1875"/><line style="stroke:#181818;stroke-width:1;" x1="436.4639" x2="477.4639" y1="505.1875" y2="505.1875"/><polygon fill="#181818" points="446.4639,501.1875,436.4639,505.1875,446.4639,509.1875,442.4639,505.1875" style="stroke:#181818;stroke-width:1;"/><text fill="#000000" font-family="sans-serif" font-size="13" lengthAdjust="spacing" textLength="176.9092" x="442.4639" y="487.1216">Mark request as withdrawn</text></g><g class="message" data-participant-1="VTS" data-participant-2="VTS"><line style="stroke:#181818;stroke-width:1;" x1="435.4639" x2="477.4639" y1="534.3203" y2="534.3203"/><line style="stroke:#181818;stroke-width:1;" x1="477.4639" x2="477.4639" y1="534.3203" y2="547.3203"/><line style="stroke:#181818;stroke-width:1;" x1="436.4639" x2="477.4639" y1="547.3203" y2="547.3203"/><polygon fill="#181818" points="446.4639,543.3203,436.4639,547.3203,446.4639,551.3203,442.4639,547.3203" style="stroke:#181818;stroke-width:1;"/><text fill="#000000" font-family="sans-serif" font-size="13" lengthAdjust="spacing" textLength="284.6099" x="442.4639" y="529.2544">Remove request from manager pending list</text></g><g class="message" data-participant-1="VTS" data-participant-2="Employee"><polygon fill="#181818" points="78.6685,572.4531,68.6685,576.4531,78.6685,580.4531,74.6685,576.4531" style="stroke:#181818;stroke-width:1;"/><line style="stroke:#181818;stroke-width:1;stroke-dasharray:2,2;" x1="72.6685" x2="434.4639" y1="576.4531" y2="576.4531"/><text fill="#000000" font-family="sans-serif" font-size="13" lengthAdjust="spacing" textLength="202.9219" x="84.6685" y="571.3872">Return to homepage (updated)</text></g><line style="stroke:#000000;stroke-width:1;stroke-dasharray:2,2;" x1="10" x2="739.0737" y1="585.4531" y2="585.4531"/><text fill="#000000" font-family="sans-serif" font-size="11" font-weight="bold" lengthAdjust="spacing" textLength="233.2505" x="15" y="595.6636">[Employee edits request information]</text><g class="message" data-participant-1="Employee" data-participant-2="VTS"><polygon fill="#181818" points="423.4639,616.3906,433.4639,620.3906,423.4639,624.3906,427.4639,620.3906" style="stroke:#181818;stroke-width:1;"/><line style="stroke:#181818;stroke-width:1;" x1="67.6685" x2="429.4639" y1="620.3906" y2="620.3906"/><text fill="#000000" font-family="sans-serif" font-size="13" lengthAdjust="spacing" textLength="170.8472" x="74.6685" y="615.3247">Submit edited information</text></g><g class="message" data-participant-1="VTS" data-participant-2="VTS"><line style="stroke:#181818;stroke-width:1;" x1="435.4639" x2="477.4639" y1="649.5234" y2="649.5234"/><line style="stroke:#181818;stroke-width:1;" x1="477.4639" x2="477.4639" y1="649.5234" y2="662.5234"/><line style="stroke:#181818;stroke-width:1;" x1="436.4639" x2="477.4639" y1="662.5234" y2="662.5234"/><polygon fill="#181818" points="446.4639,658.5234,436.4639,662.5234,446.4639,666.5234,442.4639,662.5234" style="stroke:#181818;stroke-width:1;"/><text fill="#000000" font-family="sans-serif" font-size="13" lengthAdjust="spacing" textLength="112.144" x="442.4639" y="644.4575">Validate changes</text></g><path d="M20,677.5234 L84.4429,677.5234 L84.4429,684.6563 L74.4429,694.6563 L20,694.6563 L20,677.5234" fill="#EEEEEE" style="stroke:#000000;stroke-width:1.5;"/><rect fill="none" height="132.3359" style="stroke:#000000;stroke-width:1.5;" width="611.811" x="20" y="677.5234"/><text fill="#000000" font-family="sans-serif" font-size="13" font-weight="bold" lengthAdjust="spacing" textLength="19.4429" x="35" y="690.5903">alt</text><text fill="#000000" font-family="sans-serif" font-size="11" font-weight="bold" lengthAdjust="spacing" textLength="103.3721" x="99.4429" y="689.7339">[Validation fails]</text><g class="message" data-participant-1="VTS" data-participant-2="Employee"><polygon fill="#181818" points="78.6685,711.7891,68.6685,715.7891,78.6685,719.7891,74.6685,715.7891" style="stroke:#181818;stroke-width:1;"/><line style="stroke:#181818;stroke-width:1;stroke-dasharray:2,2;" x1="72.6685" x2="434.4639" y1="715.7891" y2="715.7891"/><text fill="#000000" font-family="sans-serif" font-size="13" lengthAdjust="spacing" textLength="281.0234" x="84.6685" y="710.7231">Redisplay edit page with errors highlighted</text></g><line style="stroke:#000000;stroke-width:1;stroke-dasharray:2,2;" x1="20" x2="631.811" y1="724.7891" y2="724.7891"/><text fill="#000000" font-family="sans-serif" font-size="11" font-weight="bold" lengthAdjust="spacing" textLength="133.8369" x="25" y="734.9995">[Validation succeeds]</text><g class="message" data-participant-1="VTS" data-participant-2="VTS"><line style="stroke:#181818;stroke-width:1;" x1="435.4639" x2="477.4639" y1="759.7266" y2="759.7266"/><line style="stroke:#181818;stroke-width:1;" x1="477.4639" x2="477.4639" y1="759.7266" y2="772.7266"/><line style="stroke:#181818;stroke-width:1;" x1="436.4639" x2="477.4639" y1="772.7266" y2="772.7266"/><polygon fill="#181818" points="446.4639,768.7266,436.4639,772.7266,446.4639,776.7266,442.4639,772.7266" style="stroke:#181818;stroke-width:1;"/><text fill="#000000" font-family="sans-serif" font-size="13" lengthAdjust="spacing" textLength="177.3472" x="442.4639" y="754.6606">Save updated request data</text></g><g class="message" data-participant-1="VTS" data-participant-2="Employee"><polygon fill="#181818" points="78.6685,797.8594,68.6685,801.8594,78.6685,805.8594,74.6685,801.8594" style="stroke:#181818;stroke-width:1;"/><line style="stroke:#181818;stroke-width:1;stroke-dasharray:2,2;" x1="72.6685" x2="434.4639" y1="801.8594" y2="801.8594"/><text fill="#000000" font-family="sans-serif" font-size="13" lengthAdjust="spacing" textLength="202.9219" x="84.6685" y="796.7935">Return to homepage (updated)</text></g><!--SRC=[VLFRRjim37tNLn1vA5gW_O40sKjNO0MsheYxx9cr6Lk8Bfv4fyZVZr9a9wsH631WIuVdGagisH1ii4RMti5Rm7gdNGlL8J9PU82dHZEyaclIwfh-3HGP_aI2Huoa5DRi0ppPtlW3aUeniAvrZuvXyUmue2Cfzu7HB01Z-VoCkwIU2pPlbLAhrIIH3SMPezLAgGdoyAteBE6dRxM3lKQegj_gk9hsXNO9BxZNBJ81-xG0Fxob7bjIwMS4hOc3fZq1ZVGDCi8DX28T1sjH8F5O9dMZaILyrx4tUCZiNM67sxwOBmonK1pkFcV8yXKPgXc-b2J798su8fcsyLs6EvRSSfhrFTJUMd8SxrCGYYAAXa_z_T3SDG4_8d0t5IkGP-RjqUXw1uk_fMAHKND7hy7Rdc4h1wNsRgk3pUE-m7b4J3PEd0Nm2yDkoYG7P0Iw6N9DrkzF-RTY0omw6K6O-cbq2JUtBOCVWakTFarkw5FFcZj5Hgx0P9xocHo5j9Eerp9MmxkLMvMgg9d1poDiqEYa27M7hfKZbX5fNcKdNPijQXFpngKWpTcPW9maTGqe11yYTBhjZBnY9hFaR6VySQXhekQBn9W5fSMbBLC7qWsvQkXAPxC3roXv_mC0]--></g></svg>