<svg xmlns="http://www.w3.org/2000/svg" xmlns:xlink="http://www.w3.org/1999/xlink" contentStyleType="text/css" data-diagram-type="SEQUENCE" height="1148px" preserveAspectRatio="none" style="width:1043px;height:1148px;background:#FFFFFF;" version="1.1" viewBox="0 0 1043 1148" width="1043px" zoomAndPan="magnify"><title>Vacation Tracking System - Manage Time Use Case</title><defs/><g><text fill="#000000" font-family="sans-serif" font-size="14" font-weight="bold" lengthAdjust="spacing" textLength="403.1357" x="315.9526" y="27.9951">Vacation Tracking System - Manage Time Use Case</text><rect fill="none" height="190.6016" style="stroke:#000000;stroke-width:1.5;" width="875.8184" x="10" y="453.9219"/><g><title>Employee</title><rect fill="#000000" fill-opacity="0.00000" height="948.6563" width="8" x="53.6685" y="118.5938"/><line style="stroke:#181818;stroke-width:0.5;stroke-dasharray:5.0,5.0;" x1="57" x2="57" y1="118.5938" y2="1067.25"/></g><g><title>Manager</title><rect fill="#000000" fill-opacity="0.00000" height="948.6563" width="8" x="135.02" y="118.5938"/><line style="stroke:#181818;stroke-width:0.5;stroke-dasharray:5.0,5.0;" x1="138.3369" x2="138.3369" y1="118.5938" y2="1067.25"/></g><g><title>Intranet Portal</title><rect fill="#000000" fill-opacity="0.00000" height="948.6563" width="8" x="236.1899" y="118.5938"/><line style="stroke:#181818;stroke-width:0.5;stroke-dasharray:5.0,5.0;" x1="239.7031" x2="239.7031" y1="118.5938" y2="1067.25"/></g><g><title>Vacation Tracking System</title><rect fill="#000000" fill-opacity="0.00000" height="948.6563" width="8" x="498.646" y="118.5938"/><line style="stroke:#181818;stroke-width:0.5;stroke-dasharray:5.0,5.0;" x1="502.2974" x2="502.2974" y1="118.5938" y2="1067.25"/></g><g><title>Email Service</title><rect fill="#000000" fill-opacity="0.00000" height="948.6563" width="8" x="817.3018" y="118.5938"/><line style="stroke:#181818;stroke-width:0.5;stroke-dasharray:5.0,5.0;" x1="820.7852" x2="820.7852" y1="118.5938" y2="1067.25"/></g><g><title>HR Legacy System</title><rect fill="#000000" fill-opacity="0.00000" height="948.6563" width="8" x="954.4297" y="118.5938"/><line style="stroke:#181818;stroke-width:0.5;stroke-dasharray:5.0,5.0;" x1="957.8184" x2="957.8184" y1="118.5938" y2="1067.25"/></g><g class="participant participant-head" data-participant="Employee"><text fill="#000000" font-family="sans-serif" font-size="14" lengthAdjust="spacing" textLength="69.3369" x="20" y="115.292">Employee</text><ellipse cx="57.6685" cy="50.7969" fill="#E2E2F0" rx="8" ry="8" style="stroke:#181818;stroke-width:0.5;"/><path d="M57.6685,58.7969 L57.6685,85.7969 M44.6685,66.7969 L70.6685,66.7969 M57.6685,85.7969 L44.6685,100.7969 M57.6685,85.7969 L70.6685,100.7969" fill="none" style="stroke:#181818;stroke-width:0.5;"/></g><g class="participant participant-tail" data-participant="Employee"><text fill="#000000" font-family="sans-serif" font-size="14" lengthAdjust="spacing" textLength="69.3369" x="20" y="1079.2451">Employee</text><ellipse cx="57.6685" cy="1091.0469" fill="#E2E2F0" rx="8" ry="8" style="stroke:#181818;stroke-width:0.5;"/><path d="M57.6685,1099.0469 L57.6685,1126.0469 M44.6685,1107.0469 L70.6685,1107.0469 M57.6685,1126.0469 L44.6685,1141.0469 M57.6685,1126.0469 L70.6685,1141.0469" fill="none" style="stroke:#181818;stroke-width:0.5;"/></g><g class="participant participant-head" data-participant="Manager"><text fill="#000000" font-family="sans-serif" font-size="14" lengthAdjust="spacing" textLength="61.3662" x="105.3369" y="115.292">Manager</text><ellipse cx="139.02" cy="50.7969" fill="#E2E2F0" rx="8" ry="8" style="stroke:#181818;stroke-width:0.5;"/><path d="M139.02,58.7969 L139.02,85.7969 M126.02,66.7969 L152.02,66.7969 M139.02,85.7969 L126.02,100.7969 M139.02,85.7969 L152.02,100.7969" fill="none" style="stroke:#181818;stroke-width:0.5;"/></g><g class="participant participant-tail" data-participant="Manager"><text fill="#000000" font-family="sans-serif" font-size="14" lengthAdjust="spacing" textLength="61.3662" x="105.3369" y="1079.2451">Manager</text><ellipse cx="139.02" cy="1091.0469" fill="#E2E2F0" rx="8" ry="8" style="stroke:#181818;stroke-width:0.5;"/><path d="M139.02,1099.0469 L139.02,1126.0469 M126.02,1107.0469 L152.02,1107.0469 M139.02,1126.0469 L126.02,1141.0469 M139.02,1126.0469 L152.02,1141.0469" fill="none" style="stroke:#181818;stroke-width:0.5;"/></g><g class="participant participant-head" data-participant="Portal"><rect fill="#E2E2F0" height="30.2969" rx="2.5" ry="2.5" style="stroke:#181818;stroke-width:0.5;" width="114.9736" x="182.7031" y="87.2969"/><text fill="#000000" font-family="sans-serif" font-size="14" lengthAdjust="spacing" textLength="100.9736" x="189.7031" y="107.292">Intranet Portal</text></g><g class="participant participant-tail" data-participant="Portal"><rect fill="#E2E2F0" height="30.2969" rx="2.5" ry="2.5" style="stroke:#181818;stroke-width:0.5;" width="114.9736" x="182.7031" y="1066.25"/><text fill="#000000" font-family="sans-serif" font-size="14" lengthAdjust="spacing" textLength="100.9736" x="189.7031" y="1086.2451">Intranet Portal</text></g><g class="participant participant-head" data-participant="VTS"><rect fill="#E2E2F0" height="30.2969" rx="2.5" ry="2.5" style="stroke:#181818;stroke-width:0.5;" width="196.6973" x="404.2974" y="87.2969"/><text fill="#000000" font-family="sans-serif" font-size="14" lengthAdjust="spacing" textLength="182.6973" x="411.2974" y="107.292">Vacation Tracking System</text></g><g class="participant participant-tail" data-participant="VTS"><rect fill="#E2E2F0" height="30.2969" rx="2.5" ry="2.5" style="stroke:#181818;stroke-width:0.5;" width="196.6973" x="404.2974" y="1066.25"/><text fill="#000000" font-family="sans-serif" font-size="14" lengthAdjust="spacing" textLength="182.6973" x="411.2974" y="1086.2451">Vacation Tracking System</text></g><g class="participant participant-head" data-participant="Email"><rect fill="#E2E2F0" height="30.2969" rx="2.5" ry="2.5" style="stroke:#181818;stroke-width:0.5;" width="109.0332" x="766.7852" y="87.2969"/><text fill="#000000" font-family="sans-serif" font-size="14" lengthAdjust="spacing" textLength="95.0332" x="773.7852" y="107.292">Email Service</text></g><g class="participant participant-tail" data-participant="Email"><rect fill="#E2E2F0" height="30.2969" rx="2.5" ry="2.5" style="stroke:#181818;stroke-width:0.5;" width="109.0332" x="766.7852" y="1066.25"/><text fill="#000000" font-family="sans-serif" font-size="14" lengthAdjust="spacing" textLength="95.0332" x="773.7852" y="1086.2451">Email Service</text></g><g class="participant participant-head" data-participant="HR"><rect fill="#E2E2F0" height="30.2969" rx="2.5" ry="2.5" style="stroke:#181818;stroke-width:0.5;" width="145.2227" x="885.8184" y="87.2969"/><text fill="#000000" font-family="sans-serif" font-size="14" lengthAdjust="spacing" textLength="131.2227" x="892.8184" y="107.292">HR Legacy System</text></g><g class="participant participant-tail" data-participant="HR"><rect fill="#E2E2F0" height="30.2969" rx="2.5" ry="2.5" style="stroke:#181818;stroke-width:0.5;" width="145.2227" x="885.8184" y="1066.25"/><text fill="#000000" font-family="sans-serif" font-size="14" lengthAdjust="spacing" textLength="131.2227" x="892.8184" y="1086.2451">HR Legacy System</text></g><rect fill="#EEEEEE" height="3" style="stroke:#EEEEEE;stroke-width:1;" width="1036.041" x="0" y="149.1602"/><line style="stroke:#000000;stroke-width:1;" x1="0" x2="1036.041" y1="149.1602" y2="149.1602"/><line style="stroke:#000000;stroke-width:1;" x1="0" x2="1036.041" y1="152.1602" y2="152.1602"/><rect fill="#EEEEEE" height="23.1328" style="stroke:#000000;stroke-width:2;" width="287.5332" x="374.2539" y="138.5938"/><text fill="#000000" font-family="sans-serif" font-size="13" font-weight="bold" lengthAdjust="spacing" textLength="269.0073" x="380.2539" y="154.6606">Employee Submits Vacation Request</text><g class="message" data-participant-1="Employee" data-participant-2="Portal"><polygon fill="#181818" points="228.1899,188.8594,238.1899,192.8594,228.1899,196.8594,232.1899,192.8594" style="stroke:#181818;stroke-width:1;"/><line style="stroke:#181818;stroke-width:1;" x1="57.6685" x2="234.1899" y1="192.8594" y2="192.8594"/><text fill="#000000" font-family="sans-serif" font-size="13" lengthAdjust="spacing" textLength="89.5718" x="64.6685" y="187.7935">Login via SSO</text></g><g class="message" data-participant-1="Portal" data-participant-2="VTS"><polygon fill="#181818" points="490.646,217.9922,500.646,221.9922,490.646,225.9922,494.646,221.9922" style="stroke:#181818;stroke-width:1;"/><line style="stroke:#181818;stroke-width:1;" x1="240.1899" x2="496.646" y1="221.9922" y2="221.9922"/><text fill="#000000" font-family="sans-serif" font-size="13" lengthAdjust="spacing" textLength="238.4561" x="247.1899" y="216.9263">Authenticate Employee (credentials)</text></g><g class="message" data-participant-1="VTS" data-participant-2="HR"><polygon fill="#181818" points="946.4297,247.125,956.4297,251.125,946.4297,255.125,950.4297,251.125" style="stroke:#181818;stroke-width:1;"/><line style="stroke:#181818;stroke-width:1;" x1="502.646" x2="952.4297" y1="251.125" y2="251.125"/><text fill="#000000" font-family="sans-serif" font-size="13" lengthAdjust="spacing" textLength="256.147" x="509.646" y="246.0591">Get employee info &amp; vacation balances</text></g><g class="message" data-participant-1="HR" data-participant-2="VTS"><polygon fill="#181818" points="513.646,276.2578,503.646,280.2578,513.646,284.2578,509.646,280.2578" style="stroke:#181818;stroke-width:1;"/><line style="stroke:#181818;stroke-width:1;stroke-dasharray:2.0,2.0;" x1="507.646" x2="957.4297" y1="280.2578" y2="280.2578"/><text fill="#000000" font-family="sans-serif" font-size="13" lengthAdjust="spacing" textLength="183.4727" x="519.646" y="275.1919">Return balances and history</text></g><g class="message" data-participant-1="VTS" data-participant-2="Employee"><polygon fill="#181818" points="68.6685,305.3906,58.6685,309.3906,68.6685,313.3906,64.6685,309.3906" style="stroke:#181818;stroke-width:1;"/><line style="stroke:#181818;stroke-width:1;stroke-dasharray:2.0,2.0;" x1="62.6685" x2="501.646" y1="309.3906" y2="309.3906"/><text fill="#000000" font-family="sans-serif" font-size="13" lengthAdjust="spacing" textLength="399.7881" x="74.6685" y="304.3247">Display vacation dashboard (past 6 months, next 18 months)</text></g><g class="message" data-participant-1="Employee" data-participant-2="VTS"><polygon fill="#181818" points="490.646,334.5234,500.646,338.5234,490.646,342.5234,494.646,338.5234" style="stroke:#181818;stroke-width:1;"/><line style="stroke:#181818;stroke-width:1;" x1="57.6685" x2="496.646" y1="338.5234" y2="338.5234"/><text fill="#000000" font-family="sans-serif" font-size="13" lengthAdjust="spacing" textLength="189.687" x="64.6685" y="333.4575">Select "Create New Request"</text></g><g class="message" data-participant-1="VTS" data-participant-2="Employee"><polygon fill="#181818" points="68.6685,363.6563,58.6685,367.6563,68.6685,371.6563,64.6685,367.6563" style="stroke:#181818;stroke-width:1;"/><line style="stroke:#181818;stroke-width:1;stroke-dasharray:2.0,2.0;" x1="62.6685" x2="501.646" y1="367.6563" y2="367.6563"/><text fill="#000000" font-family="sans-serif" font-size="13" lengthAdjust="spacing" textLength="316.0815" x="74.6685" y="362.5903">Show vacation categories with positive balances</text></g><g class="message" data-participant-1="Employee" data-participant-2="VTS"><polygon fill="#181818" points="490.646,392.7891,500.646,396.7891,490.646,400.7891,494.646,396.7891" style="stroke:#181818;stroke-width:1;"/><line style="stroke:#181818;stroke-width:1;" x1="57.6685" x2="496.646" y1="396.7891" y2="396.7891"/><text fill="#000000" font-family="sans-serif" font-size="13" lengthAdjust="spacing" textLength="234.1523" x="64.6685" y="391.7231">Enter dates, hours, title, description</text></g><g class="message" data-participant-1="VTS" data-participant-2="VTS"><line style="stroke:#181818;stroke-width:1;" x1="502.646" x2="544.646" y1="425.9219" y2="425.9219"/><line style="stroke:#181818;stroke-width:1;" x1="544.646" x2="544.646" y1="425.9219" y2="438.9219"/><line style="stroke:#181818;stroke-width:1;" x1="503.646" x2="544.646" y1="438.9219" y2="438.9219"/><polygon fill="#181818" points="513.646,434.9219,503.646,438.9219,513.646,442.9219,509.646,438.9219" style="stroke:#181818;stroke-width:1;"/><text fill="#000000" font-family="sans-serif" font-size="13" lengthAdjust="spacing" textLength="140.645" x="509.646" y="420.856">Validate request data</text></g><path d="M10,453.9219 L74.4429,453.9219 L74.4429,461.0547 L64.4429,471.0547 L10,471.0547 L10,453.9219" fill="#EEEEEE" style="stroke:#000000;stroke-width:1.5;"/><rect fill="none" height="190.6016" style="stroke:#000000;stroke-width:1.5;" width="875.8184" x="10" y="453.9219"/><text fill="#000000" font-family="sans-serif" font-size="13" font-weight="bold" lengthAdjust="spacing" textLength="19.4429" x="25" y="466.9888">alt</text><text fill="#000000" font-family="sans-serif" font-size="11" font-weight="bold" lengthAdjust="spacing" textLength="173.4004" x="89.4429" y="466.1323">[Invalid or incomplete data]</text><g class="message" data-participant-1="VTS" data-participant-2="Employee"><polygon fill="#181818" points="68.6685,488.1875,58.6685,492.1875,68.6685,496.1875,64.6685,492.1875" style="stroke:#181818;stroke-width:1;"/><line style="stroke:#181818;stroke-width:1;stroke-dasharray:2.0,2.0;" x1="62.6685" x2="501.646" y1="492.1875" y2="492.1875"/><text fill="#000000" font-family="sans-serif" font-size="13" lengthAdjust="spacing" textLength="250.0024" x="74.6685" y="487.1216">Redisplay form with highlighted errors</text></g><g class="message" data-participant-1="Employee" data-participant-2="VTS"><polygon fill="#181818" points="490.646,517.3203,500.646,521.3203,490.646,525.3203,494.646,521.3203" style="stroke:#181818;stroke-width:1;"/><line style="stroke:#181818;stroke-width:1;" x1="57.6685" x2="496.646" y1="521.3203" y2="521.3203"/><text fill="#000000" font-family="sans-serif" font-size="13" lengthAdjust="spacing" textLength="172.0786" x="64.6685" y="516.2544">Correct data and resubmit</text></g><line style="stroke:#000000;stroke-width:1;stroke-dasharray:2.0,2.0;" x1="10" x2="885.8184" y1="530.3203" y2="530.3203"/><text fill="#000000" font-family="sans-serif" font-size="11" font-weight="bold" lengthAdjust="spacing" textLength="108.9419" x="15" y="540.5308">[Request is valid]</text><g class="message" data-participant-1="VTS" data-participant-2="VTS"><line style="stroke:#181818;stroke-width:1;" x1="502.646" x2="544.646" y1="565.2578" y2="565.2578"/><line style="stroke:#181818;stroke-width:1;" x1="544.646" x2="544.646" y1="565.2578" y2="578.2578"/><line style="stroke:#181818;stroke-width:1;" x1="503.646" x2="544.646" y1="578.2578" y2="578.2578"/><polygon fill="#181818" points="513.646,574.2578,503.646,578.2578,513.646,582.2578,509.646,578.2578" style="stroke:#181818;stroke-width:1;"/><text fill="#000000" font-family="sans-serif" font-size="13" lengthAdjust="spacing" textLength="304.6558" x="509.646" y="560.1919">Save new request (status = Pending Approval)</text></g><g class="message" data-participant-1="VTS" data-participant-2="Email"><polygon fill="#181818" points="809.3018,603.3906,819.3018,607.3906,809.3018,611.3906,813.3018,607.3906" style="stroke:#181818;stroke-width:1;"/><line style="stroke:#181818;stroke-width:1;" x1="502.646" x2="815.3018" y1="607.3906" y2="607.3906"/><text fill="#000000" font-family="sans-serif" font-size="13" lengthAdjust="spacing" textLength="226.0464" x="509.646" y="602.3247">Send approval request to Manager</text></g><g class="message" data-participant-1="VTS" data-participant-2="Employee"><polygon fill="#181818" points="68.6685,632.5234,58.6685,636.5234,68.6685,640.5234,64.6685,636.5234" style="stroke:#181818;stroke-width:1;"/><line style="stroke:#181818;stroke-width:1;stroke-dasharray:2.0,2.0;" x1="62.6685" x2="501.646" y1="636.5234" y2="636.5234"/><text fill="#000000" font-family="sans-serif" font-size="13" lengthAdjust="spacing" textLength="204.5532" x="74.6685" y="631.4575">Return to main VTS home page</text></g><rect fill="#EEEEEE" height="3" style="stroke:#EEEEEE;stroke-width:1;" width="1036.041" x="0" y="672.0898"/><line style="stroke:#000000;stroke-width:1;" x1="0" x2="1036.041" y1="672.0898" y2="672.0898"/><line style="stroke:#000000;stroke-width:1;" x1="0" x2="1036.041" y1="675.0898" y2="675.0898"/><rect fill="#EEEEEE" height="23.1328" style="stroke:#000000;stroke-width:2;" width="212.3262" x="411.8574" y="661.5234"/><text fill="#000000" font-family="sans-serif" font-size="13" font-weight="bold" lengthAdjust="spacing" textLength="193.8003" x="417.8574" y="677.5903">Manager Reviews Request</text><g class="message" data-participant-1="Manager" data-participant-2="Email"><polygon fill="#181818" points="809.3018,711.7891,819.3018,715.7891,809.3018,719.7891,813.3018,715.7891" style="stroke:#181818;stroke-width:1;"/><line style="stroke:#181818;stroke-width:1;" x1="139.02" x2="815.3018" y1="715.7891" y2="715.7891"/><text fill="#000000" font-family="sans-serif" font-size="13" lengthAdjust="spacing" textLength="123.0176" x="146.02" y="710.7231">Open approval link</text></g><g class="message" data-participant-1="Email" data-participant-2="Portal"><polygon fill="#181818" points="251.1899,740.9219,241.1899,744.9219,251.1899,748.9219,247.1899,744.9219" style="stroke:#181818;stroke-width:1;"/><line style="stroke:#181818;stroke-width:1;" x1="245.1899" x2="820.3018" y1="744.9219" y2="744.9219"/><text fill="#000000" font-family="sans-serif" font-size="13" lengthAdjust="spacing" textLength="168.5811" x="257.1899" y="739.856">Redirect Manager to login</text></g><g class="message" data-participant-1="Portal" data-participant-2="VTS"><polygon fill="#181818" points="490.646,770.0547,500.646,774.0547,490.646,778.0547,494.646,774.0547" style="stroke:#181818;stroke-width:1;"/><line style="stroke:#181818;stroke-width:1;" x1="240.1899" x2="496.646" y1="774.0547" y2="774.0547"/><text fill="#000000" font-family="sans-serif" font-size="13" lengthAdjust="spacing" textLength="144.7393" x="247.1899" y="768.9888">Authenticate Manager</text></g><g class="message" data-participant-1="VTS" data-participant-2="HR"><polygon fill="#181818" points="946.4297,799.1875,956.4297,803.1875,946.4297,807.1875,950.4297,803.1875" style="stroke:#181818;stroke-width:1;"/><line style="stroke:#181818;stroke-width:1;" x1="502.646" x2="952.4297" y1="803.1875" y2="803.1875"/><text fill="#000000" font-family="sans-serif" font-size="13" lengthAdjust="spacing" textLength="281.3281" x="509.646" y="798.1216">Get manager info &amp; subordinates' requests</text></g><g class="message" data-participant-1="HR" data-participant-2="VTS"><polygon fill="#181818" points="513.646,828.3203,503.646,832.3203,513.646,836.3203,509.646,832.3203" style="stroke:#181818;stroke-width:1;"/><line style="stroke:#181818;stroke-width:1;stroke-dasharray:2.0,2.0;" x1="507.646" x2="957.4297" y1="832.3203" y2="832.3203"/><text fill="#000000" font-family="sans-serif" font-size="13" lengthAdjust="spacing" textLength="159.2246" x="519.646" y="827.2544">Return subordinate data</text></g><g class="message" data-participant-1="VTS" data-participant-2="Manager"><polygon fill="#181818" points="150.02,857.4531,140.02,861.4531,150.02,865.4531,146.02,861.4531" style="stroke:#181818;stroke-width:1;"/><line style="stroke:#181818;stroke-width:1;stroke-dasharray:2.0,2.0;" x1="144.02" x2="501.646" y1="861.4531" y2="861.4531"/><text fill="#000000" font-family="sans-serif" font-size="13" lengthAdjust="spacing" textLength="176.4521" x="156.02" y="856.3872">Show pending approval list</text></g><g class="message" data-participant-1="Manager" data-participant-2="VTS"><polygon fill="#181818" points="490.646,886.5859,500.646,890.5859,490.646,894.5859,494.646,890.5859" style="stroke:#181818;stroke-width:1;"/><line style="stroke:#181818;stroke-width:1;" x1="139.02" x2="496.646" y1="890.5859" y2="890.5859"/><text fill="#000000" font-family="sans-serif" font-size="13" lengthAdjust="spacing" textLength="153.9053" x="146.02" y="885.52">Open a specific request</text></g><g class="message" data-participant-1="VTS" data-participant-2="Manager"><polygon fill="#181818" points="150.02,915.7188,140.02,919.7188,150.02,923.7188,146.02,919.7188" style="stroke:#181818;stroke-width:1;"/><line style="stroke:#181818;stroke-width:1;stroke-dasharray:2.0,2.0;" x1="144.02" x2="501.646" y1="919.7188" y2="919.7188"/><text fill="#000000" font-family="sans-serif" font-size="13" lengthAdjust="spacing" textLength="149.1953" x="156.02" y="914.6528">Display request details</text></g><g class="message" data-participant-1="Manager" data-participant-2="VTS"><polygon fill="#181818" points="490.646,944.8516,500.646,948.8516,490.646,952.8516,494.646,948.8516" style="stroke:#181818;stroke-width:1;"/><line style="stroke:#181818;stroke-width:1;" x1="139.02" x2="496.646" y1="948.8516" y2="948.8516"/><text fill="#000000" font-family="sans-serif" font-size="13" lengthAdjust="spacing" textLength="281.4043" x="146.02" y="943.7856">Approve or Reject (with optional comment)</text></g><g class="message" data-participant-1="VTS" data-participant-2="VTS"><line style="stroke:#181818;stroke-width:1;" x1="502.646" x2="544.646" y1="977.9844" y2="977.9844"/><line style="stroke:#181818;stroke-width:1;" x1="544.646" x2="544.646" y1="977.9844" y2="990.9844"/><line style="stroke:#181818;stroke-width:1;" x1="503.646" x2="544.646" y1="990.9844" y2="990.9844"/><polygon fill="#181818" points="513.646,986.9844,503.646,990.9844,513.646,994.9844,509.646,990.9844" style="stroke:#181818;stroke-width:1;"/><text fill="#000000" font-family="sans-serif" font-size="13" lengthAdjust="spacing" textLength="276.4087" x="509.646" y="972.9185">Update request state (Approved/Rejected)</text></g><g class="message" data-participant-1="VTS" data-participant-2="Email"><polygon fill="#181818" points="809.3018,1016.1172,819.3018,1020.1172,809.3018,1024.1172,813.3018,1020.1172" style="stroke:#181818;stroke-width:1;"/><line style="stroke:#181818;stroke-width:1;" x1="502.646" x2="815.3018" y1="1020.1172" y2="1020.1172"/><text fill="#000000" font-family="sans-serif" font-size="13" lengthAdjust="spacing" textLength="181.5557" x="509.646" y="1015.0513">Notify Employee of decision</text></g><g class="message" data-participant-1="VTS" data-participant-2="Manager"><polygon fill="#181818" points="150.02,1045.25,140.02,1049.25,150.02,1053.25,146.02,1049.25" style="stroke:#181818;stroke-width:1;"/><line style="stroke:#181818;stroke-width:1;stroke-dasharray:2.0,2.0;" x1="144.02" x2="501.646" y1="1049.25" y2="1049.25"/><text fill="#000000" font-family="sans-serif" font-size="13" lengthAdjust="spacing" textLength="170.8789" x="156.02" y="1044.1841">Return to main dashboard</text></g><!--SRC=[VLHTJzj047o_Nx7YeKqaKDMNgeeK94HHGQA0RE1ziJVn5VlElTiapR_ltldy4GADX89zixkpSpDXpJN1CnR8sXfuT5YyQhE6VE-P6ZY3NsXmJV2e6u8dJt29dfJ2Wgs3gwQjxPueFNPGfrfqh0lTec4ukJ7iq133WtMCzGcWJ_yUuZwY40kU7_D3z5M3keQSt5ON527npI7eEeDRMcEndxQwpfHQBWVga6zU6ir-b22ZFnlo3Ckb6a1dvudp0cxjMXlOQeGylrVTst0k51TmiU6AZ310fd74h71KXjTO-xaIOC1VPmluAR9GZz9cPU4JR7iUBrYZASWhMUEi7v0HRznu1cXAgBGNzVTTOm7sSnVmG_ksnltOiqHVlLXq9SnQb1s_GMCDL_uK3Frb-FezFS_LmUvnT4ur5QBgfQEmtHtjUgbEtXcTLtOtpWrwhAtJmdYdkOBMUirwI-EIn_Ek39CJnan2hx8R9rySt7eA9Vd2wJQqxkMC9SzOwr00BjsXFA32ck76RCCPY4krAQpC8e75Ov3FCV-CoYJUohgcOrtfTLNB7rC9v9nrFXOVCR-qpWMfGljuGuvyT9bIL4k41ejf3v7MoA7N6aKR8mhtYymy8syyBE61J1dIST6spahrV5eSGn2kIePY0Wmzs0u9_MZdQ2x1IHiJ0PMLsBTIewHb34vg8U2jffsVngK_6edSjsH68hKshwfBxYHGGUaeLryky-iGil-6gz_aJPgQr2E5IMItJkGA9lhS2_5keYR8pXQ3fzEaPEasoJzPolDqyzYqsnjyIuLUwQAVVDopJ-XWM6AHH-BmjcDttHGCdD7l8DSiUjB650WFCNKZwimF0l7K7iGXc4X-ZbAlyalNYSgXA5tRdMMzse_6jYiXLcW_v6swmXlN33yn_m00]--></g></svg>