<svg xmlns="http://www.w3.org/2000/svg" xmlns:xlink="http://www.w3.org/1999/xlink" contentStyleType="text/css" data-diagram-type="SEQUENCE" height="638px" preserveAspectRatio="none" style="width:1141px;height:638px;background:#FFFFFF;" version="1.1" viewBox="0 0 1141 638" width="1141px" zoomAndPan="magnify"><title>Vacation Tracking System - Withdraw Request Use Case</title><defs/><g><text fill="#000000" font-family="sans-serif" font-size="14" font-weight="bold" lengthAdjust="spacing" textLength="443.3857" x="345.2117" y="27.9951">Vacation Tracking System - Withdraw Request Use Case</text><g><title>Employee</title><rect fill="#000000" fill-opacity="0.00000" height="438.7266" width="8" x="38.6685" y="118.5938"/><line style="stroke:#181818;stroke-width:0.5;stroke-dasharray:5,5;" x1="42" x2="42" y1="118.5938" y2="557.3203"/></g><g><title>Manager</title><rect fill="#000000" fill-opacity="0.00000" height="438.7266" width="8" x="120.02" y="118.5938"/><line style="stroke:#181818;stroke-width:0.5;stroke-dasharray:5,5;" x1="123.3369" x2="123.3369" y1="118.5938" y2="557.3203"/></g><g><title>Intranet Portal</title><rect fill="#000000" fill-opacity="0.00000" height="438.7266" width="8" x="221.1899" y="118.5938"/><line style="stroke:#181818;stroke-width:0.5;stroke-dasharray:5,5;" x1="224.7031" x2="224.7031" y1="118.5938" y2="557.3203"/></g><g><title>Vacation Tracking System</title><rect fill="#000000" fill-opacity="0.00000" height="438.7266" width="8" x="446.9619" y="118.5938"/><line style="stroke:#181818;stroke-width:0.5;stroke-dasharray:5,5;" x1="450.6133" x2="450.6133" y1="118.5938" y2="557.3203"/></g><g><title>Email Service</title><rect fill="#000000" fill-opacity="0.00000" height="438.7266" width="8" x="916.0698" y="118.5938"/><line style="stroke:#181818;stroke-width:0.5;stroke-dasharray:5,5;" x1="919.5532" x2="919.5532" y1="118.5938" y2="557.3203"/></g><g><title>HR Legacy System</title><rect fill="#000000" fill-opacity="0.00000" height="438.7266" width="8" x="1053.1978" y="118.5938"/><line style="stroke:#181818;stroke-width:0.5;stroke-dasharray:5,5;" x1="1056.5864" x2="1056.5864" y1="118.5938" y2="557.3203"/></g><g class="participant participant-head" data-participant="Employee"><text fill="#000000" font-family="sans-serif" font-size="14" lengthAdjust="spacing" textLength="69.3369" x="5" y="115.292">Employee</text><ellipse cx="42.6685" cy="50.7969" fill="#E2E2F0" rx="8" ry="8" style="stroke:#181818;stroke-width:0.5;"/><path d="M42.6685,58.7969 L42.6685,85.7969 M29.6685,66.7969 L55.6685,66.7969 M42.6685,85.7969 L29.6685,100.7969 M42.6685,85.7969 L55.6685,100.7969" fill="none" style="stroke:#181818;stroke-width:0.5;"/></g><g class="participant participant-tail" data-participant="Employee"><text fill="#000000" font-family="sans-serif" font-size="14" lengthAdjust="spacing" textLength="69.3369" x="5" y="569.3154">Employee</text><ellipse cx="42.6685" cy="581.1172" fill="#E2E2F0" rx="8" ry="8" style="stroke:#181818;stroke-width:0.5;"/><path d="M42.6685,589.1172 L42.6685,616.1172 M29.6685,597.1172 L55.6685,597.1172 M42.6685,616.1172 L29.6685,631.1172 M42.6685,616.1172 L55.6685,631.1172" fill="none" style="stroke:#181818;stroke-width:0.5;"/></g><g class="participant participant-head" data-participant="Manager"><text fill="#000000" font-family="sans-serif" font-size="14" lengthAdjust="spacing" textLength="61.3662" x="90.3369" y="115.292">Manager</text><ellipse cx="124.02" cy="50.7969" fill="#E2E2F0" rx="8" ry="8" style="stroke:#181818;stroke-width:0.5;"/><path d="M124.02,58.7969 L124.02,85.7969 M111.02,66.7969 L137.02,66.7969 M124.02,85.7969 L111.02,100.7969 M124.02,85.7969 L137.02,100.7969" fill="none" style="stroke:#181818;stroke-width:0.5;"/></g><g class="participant participant-tail" data-participant="Manager"><text fill="#000000" font-family="sans-serif" font-size="14" lengthAdjust="spacing" textLength="61.3662" x="90.3369" y="569.3154">Manager</text><ellipse cx="124.02" cy="581.1172" fill="#E2E2F0" rx="8" ry="8" style="stroke:#181818;stroke-width:0.5;"/><path d="M124.02,589.1172 L124.02,616.1172 M111.02,597.1172 L137.02,597.1172 M124.02,616.1172 L111.02,631.1172 M124.02,616.1172 L137.02,631.1172" fill="none" style="stroke:#181818;stroke-width:0.5;"/></g><g class="participant participant-head" data-participant="Portal"><rect fill="#E2E2F0" height="30.2969" rx="2.5" ry="2.5" style="stroke:#181818;stroke-width:0.5;" width="114.9736" x="167.7031" y="87.2969"/><text fill="#000000" font-family="sans-serif" font-size="14" lengthAdjust="spacing" textLength="100.9736" x="174.7031" y="107.292">Intranet Portal</text></g><g class="participant participant-tail" data-participant="Portal"><rect fill="#E2E2F0" height="30.2969" rx="2.5" ry="2.5" style="stroke:#181818;stroke-width:0.5;" width="114.9736" x="167.7031" y="556.3203"/><text fill="#000000" font-family="sans-serif" font-size="14" lengthAdjust="spacing" textLength="100.9736" x="174.7031" y="576.3154">Intranet Portal</text></g><g class="participant participant-head" data-participant="VTS"><rect fill="#E2E2F0" height="30.2969" rx="2.5" ry="2.5" style="stroke:#181818;stroke-width:0.5;" width="196.6973" x="352.6133" y="87.2969"/><text fill="#000000" font-family="sans-serif" font-size="14" lengthAdjust="spacing" textLength="182.6973" x="359.6133" y="107.292">Vacation Tracking System</text></g><g class="participant participant-tail" data-participant="VTS"><rect fill="#E2E2F0" height="30.2969" rx="2.5" ry="2.5" style="stroke:#181818;stroke-width:0.5;" width="196.6973" x="352.6133" y="556.3203"/><text fill="#000000" font-family="sans-serif" font-size="14" lengthAdjust="spacing" textLength="182.6973" x="359.6133" y="576.3154">Vacation Tracking System</text></g><g class="participant participant-head" data-participant="Email"><rect fill="#E2E2F0" height="30.2969" rx="2.5" ry="2.5" style="stroke:#181818;stroke-width:0.5;" width="109.0332" x="865.5532" y="87.2969"/><text fill="#000000" font-family="sans-serif" font-size="14" lengthAdjust="spacing" textLength="95.0332" x="872.5532" y="107.292">Email Service</text></g><g class="participant participant-tail" data-participant="Email"><rect fill="#E2E2F0" height="30.2969" rx="2.5" ry="2.5" style="stroke:#181818;stroke-width:0.5;" width="109.0332" x="865.5532" y="556.3203"/><text fill="#000000" font-family="sans-serif" font-size="14" lengthAdjust="spacing" textLength="95.0332" x="872.5532" y="576.3154">Email Service</text></g><g class="participant participant-head" data-participant="HR"><rect fill="#E2E2F0" height="30.2969" rx="2.5" ry="2.5" style="stroke:#181818;stroke-width:0.5;" width="145.2227" x="984.5864" y="87.2969"/><text fill="#000000" font-family="sans-serif" font-size="14" lengthAdjust="spacing" textLength="131.2227" x="991.5864" y="107.292">HR Legacy System</text></g><g class="participant participant-tail" data-participant="HR"><rect fill="#E2E2F0" height="30.2969" rx="2.5" ry="2.5" style="stroke:#181818;stroke-width:0.5;" width="145.2227" x="984.5864" y="556.3203"/><text fill="#000000" font-family="sans-serif" font-size="14" lengthAdjust="spacing" textLength="131.2227" x="991.5864" y="576.3154">HR Legacy System</text></g><rect fill="#EEEEEE" height="3" style="stroke:#EEEEEE;stroke-width:1;" width="1134.8091" x="0" y="149.1602"/><line style="stroke:#000000;stroke-width:1;" x1="0" x2="1134.8091" y1="149.1602" y2="149.1602"/><line style="stroke:#000000;stroke-width:1;" x1="0" x2="1134.8091" y1="152.1602" y2="152.1602"/><rect fill="#EEEEEE" height="23.1328" style="stroke:#000000;stroke-width:2;" width="298.4194" x="418.1948" y="138.5938"/><text fill="#000000" font-family="sans-serif" font-size="13" font-weight="bold" lengthAdjust="spacing" textLength="279.8936" x="424.1948" y="154.6606">Employee Withdraw Vacation Request</text><g class="message" data-participant-1="Employee" data-participant-2="Portal"><polygon fill="#181818" points="213.1899,188.8594,223.1899,192.8594,213.1899,196.8594,217.1899,192.8594" style="stroke:#181818;stroke-width:1;"/><line style="stroke:#181818;stroke-width:1;" x1="42.6685" x2="219.1899" y1="192.8594" y2="192.8594"/><text fill="#000000" font-family="sans-serif" font-size="13" lengthAdjust="spacing" textLength="89.5718" x="49.6685" y="187.7935">Login via SSO</text></g><g class="message" data-participant-1="Portal" data-participant-2="VTS"><polygon fill="#181818" points="438.9619,217.9922,448.9619,221.9922,438.9619,225.9922,442.9619,221.9922" style="stroke:#181818;stroke-width:1;"/><line style="stroke:#181818;stroke-width:1;" x1="225.1899" x2="444.9619" y1="221.9922" y2="221.9922"/><text fill="#000000" font-family="sans-serif" font-size="13" lengthAdjust="spacing" textLength="179.7021" x="232.1899" y="216.9263">Naviagte to VTS Homepage</text></g><g class="message" data-participant-1="VTS" data-participant-2="HR"><polygon fill="#181818" points="1045.1978,247.125,1055.1978,251.125,1045.1978,255.125,1049.1978,251.125" style="stroke:#181818;stroke-width:1;"/><line style="stroke:#181818;stroke-width:1;" x1="450.9619" x2="1051.1978" y1="251.125" y2="251.125"/><text fill="#000000" font-family="sans-serif" font-size="13" lengthAdjust="spacing" textLength="184.9072" x="457.9619" y="246.0591">Get Employee vacation data</text></g><g class="message" data-participant-1="HR" data-participant-2="VTS"><polygon fill="#181818" points="461.9619,276.2578,451.9619,280.2578,461.9619,284.2578,457.9619,280.2578" style="stroke:#181818;stroke-width:1;"/><line style="stroke:#181818;stroke-width:1;stroke-dasharray:2,2;" x1="455.9619" x2="1056.1978" y1="280.2578" y2="280.2578"/><text fill="#000000" font-family="sans-serif" font-size="13" lengthAdjust="spacing" textLength="145.8818" x="467.9619" y="275.1919">Return Employee data</text></g><g class="message" data-participant-1="VTS" data-participant-2="Employee"><polygon fill="#181818" points="53.6685,305.3906,43.6685,309.3906,53.6685,313.3906,49.6685,309.3906" style="stroke:#181818;stroke-width:1;"/><line style="stroke:#181818;stroke-width:1;stroke-dasharray:2,2;" x1="47.6685" x2="449.9619" y1="309.3906" y2="309.3906"/><text fill="#000000" font-family="sans-serif" font-size="13" lengthAdjust="spacing" textLength="378.1743" x="59.6685" y="304.3247">Homepage contains a summary of vacation time requests</text></g><g class="message" data-participant-1="Employee" data-participant-2="VTS"><polygon fill="#181818" points="438.9619,334.5234,448.9619,338.5234,438.9619,342.5234,442.9619,338.5234" style="stroke:#181818;stroke-width:1;"/><line style="stroke:#181818;stroke-width:1;" x1="42.6685" x2="444.9619" y1="338.5234" y2="338.5234"/><text fill="#000000" font-family="sans-serif" font-size="13" lengthAdjust="spacing" textLength="263.1611" x="49.6685" y="333.4575">Employee selects a request to Withdraw</text></g><g class="message" data-participant-1="VTS" data-participant-2="Employee"><polygon fill="#181818" points="53.6685,363.6563,43.6685,367.6563,53.6685,371.6563,49.6685,367.6563" style="stroke:#181818;stroke-width:1;"/><line style="stroke:#181818;stroke-width:1;stroke-dasharray:2,2;" x1="47.6685" x2="449.9619" y1="367.6563" y2="367.6563"/><text fill="#000000" font-family="sans-serif" font-size="13" lengthAdjust="spacing" textLength="384.2935" x="59.6685" y="362.5903">Prompts the Employee to confirm Withdrawing the request</text></g><g class="message" data-participant-1="Employee" data-participant-2="VTS"><polygon fill="#181818" points="438.9619,392.7891,448.9619,396.7891,438.9619,400.7891,442.9619,396.7891" style="stroke:#181818;stroke-width:1;"/><line style="stroke:#181818;stroke-width:1;" x1="42.6685" x2="444.9619" y1="396.7891" y2="396.7891"/><text fill="#000000" font-family="sans-serif" font-size="13" lengthAdjust="spacing" textLength="275.4946" x="49.6685" y="391.7231">Employee confirms the desire to withdraw</text></g><g class="message" data-participant-1="VTS" data-participant-2="VTS"><line style="stroke:#181818;stroke-width:1;" x1="450.9619" x2="492.9619" y1="425.9219" y2="425.9219"/><line style="stroke:#181818;stroke-width:1;" x1="492.9619" x2="492.9619" y1="425.9219" y2="438.9219"/><line style="stroke:#181818;stroke-width:1;" x1="451.9619" x2="492.9619" y1="438.9219" y2="438.9219"/><polygon fill="#181818" points="461.9619,434.9219,451.9619,438.9219,461.9619,442.9219,457.9619,438.9219" style="stroke:#181818;stroke-width:1;"/><text fill="#000000" font-family="sans-serif" font-size="13" lengthAdjust="spacing" textLength="455.1079" x="457.9619" y="420.856">Remove this Request ID from the manager&#8217;s list of pending approvals</text></g><g class="message" data-participant-1="VTS" data-participant-2="VTS"><line style="stroke:#181818;stroke-width:1;" x1="450.9619" x2="492.9619" y1="468.0547" y2="468.0547"/><line style="stroke:#181818;stroke-width:1;" x1="492.9619" x2="492.9619" y1="468.0547" y2="481.0547"/><line style="stroke:#181818;stroke-width:1;" x1="451.9619" x2="492.9619" y1="481.0547" y2="481.0547"/><polygon fill="#181818" points="461.9619,477.0547,451.9619,481.0547,461.9619,485.0547,457.9619,481.0547" style="stroke:#181818;stroke-width:1;"/><text fill="#000000" font-family="sans-serif" font-size="13" lengthAdjust="spacing" textLength="252.7764" x="457.9619" y="462.9888">Update the request state to withdrawn</text></g><g class="message" data-participant-1="VTS" data-participant-2="Email"><polygon fill="#181818" points="908.0698,506.1875,918.0698,510.1875,908.0698,514.1875,912.0698,510.1875" style="stroke:#181818;stroke-width:1;"/><line style="stroke:#181818;stroke-width:1;" x1="450.9619" x2="914.0698" y1="510.1875" y2="510.1875"/><text fill="#000000" font-family="sans-serif" font-size="13" lengthAdjust="spacing" textLength="271.9653" x="457.9619" y="505.1216">Send a notification e-mail to the manager</text></g><g class="message" data-participant-1="VTS" data-participant-2="Employee"><polygon fill="#181818" points="53.6685,535.3203,43.6685,539.3203,53.6685,543.3203,49.6685,539.3203" style="stroke:#181818;stroke-width:1;"/><line style="stroke:#181818;stroke-width:1;stroke-dasharray:2,2;" x1="47.6685" x2="449.9619" y1="539.3203" y2="539.3203"/><text fill="#000000" font-family="sans-serif" font-size="13" lengthAdjust="spacing" textLength="136.1255" x="59.6685" y="534.2544">Return to Homepage</text></g><!--SRC=[VLBBRjj03BplLn2v-mS4k9Ssg0EaRI3bSIOaMYQgVNINLk1RVwE_roy9jPRM5f3a9f4piyCXXMKWUCOMXRs3nuZjRtOzDASaP643Boo7Bk8hrFJdI4dWAH5ynKJ6O2i-mgqDWpyHpRy_q65FqGICmYq7T08tTquYEX9uy55mk05Cy-SQzv6FJ7X-RDReMuiyG4Dnv9Oo95VMe5qDzzHZUxgMsjN6RBV5-cN8Oc2PThir1RNvCfkkuDxtx61aXARvPSxLgQyUA_Y9skY5GFnKW9st53GKC_qeQ5TNy5t3ACBZycg7WaOTRnQfckGOtGMP0Lb64KkrAYz0wvqWkmG8wMWjnXFu_KLVs1B4ysZ9h2RBpvL2ee5QcMHcz3JBaj8x1XwYjq7nSg2BY5BKpvwZBTHffHDcLltCmamzQtQKE6R5rvM94fFrexOFdChcxhx1NbrbkZqVvV-__n8Ch4qD9P3h9ZiOGlGZ3ccb-1GqQhhs2abGLXQSMIZvxYezHTTfPCuBxtcEd3RvIfLsPUIT1ETDAsvPvXi0]--></g></svg>